hold_a_tea_cup coordinate motion generated from LLM joint_angles
version=1
nRows=29
nColumns=29
inDegrees=yes
endheader
time	elbow_flexion	pro_sup	rotaxis_auxprfem_r3	deviation	auxprrud_auxdrfem_r3	auxdrfem_auxdrrud_r1	MCP2_lateral	MCP2_flex	PIP_flex	DIP_flex	MCP2M_lateral	MCP2M_flex	MPIP_flex	MDIP_flex	RCP2M_lateral	RCP2M_flex	RPIP_flex	RDIP_flex	LCP2M_lateral	LCP2M_flex	LPIP_flex	LDIP_flex	thumb_abd	thumb_flex	TCP2M_lateral	TCP2M_flex	TCP2M2_flex	flexion
0.333333	0.000000	0.000000	0.000000	4.330127	0.000000	0.000000	0.000000	17.320508	25.980762	34.641016	0.000000	17.320508	25.980762	34.641016	0.000000	77.942286	77.942286	77.942286	0.000000	77.942286	77.942286	77.942286	17.320508	38.971143	0.000000	8.660254	0.000000	8.660254
0.340000	0.000000	0.000000	0.000000	4.381533	0.000000	0.000000	0.000000	17.526134	26.289200	35.052267	0.000000	17.526134	26.289200	35.052267	0.000000	78.867601	78.867601	78.867601	0.000000	78.867601	78.867601	78.867601	17.526134	39.433801	0.000000	8.763067	0.000000	8.763067
0.346667	0.000000	0.000000	0.000000	4.431018	0.000000	0.000000	0.000000	17.724072	26.586107	35.448143	0.000000	17.724072	26.586107	35.448143	0.000000	79.758322	79.758322	79.758322	0.000000	79.758322	79.758322	79.758322	17.724072	39.879161	0.000000	8.862036	0.000000	8.862036
0.353333	0.000000	0.000000	0.000000	4.478559	0.000000	0.000000	0.000000	17.914235	26.871353	35.828470	0.000000	17.914235	26.871353	35.828470	0.000000	80.614058	80.614058	80.614058	0.000000	80.614058	80.614058	80.614058	17.914235	40.307029	0.000000	8.957118	0.000000	8.957118
0.360000	0.000000	0.000000	0.000000	4.524135	0.000000	0.000000	0.000000	18.096541	27.144812	36.193082	0.000000	18.096541	27.144812	36.193082	0.000000	81.434435	81.434435	81.434435	0.000000	81.434435	81.434435	81.434435	18.096541	40.717217	0.000000	9.048271	0.000000	9.048271
0.366667	0.000000	0.000000	0.000000	4.567727	0.000000	0.000000	0.000000	18.270909	27.406364	36.541818	0.000000	18.270909	27.406364	36.541818	0.000000	82.219091	82.219091	82.219091	0.000000	82.219091	82.219091	82.219091	18.270909	41.109546	0.000000	9.135455	0.000000	9.135455
0.373333	0.000000	0.000000	0.000000	4.609316	0.000000	0.000000	0.000000	18.437263	27.655895	36.874526	0.000000	18.437263	27.655895	36.874526	0.000000	82.967684	82.967684	82.967684	0.000000	82.967684	82.967684	82.967684	18.437263	41.483842	0.000000	9.218632	0.000000	9.218632
0.380000	0.000000	0.000000	0.000000	4.648882	0.000000	0.000000	0.000000	18.595530	27.893295	37.191059	0.000000	18.595530	27.893295	37.191059	0.000000	83.679884	83.679884	83.679884	0.000000	83.679884	83.679884	83.679884	18.595530	41.839942	0.000000	9.297765	0.000000	9.297765
0.386667	0.000000	0.000000	0.000000	4.686410	0.000000	0.000000	0.000000	18.745640	28.118460	37.491280	0.000000	18.745640	28.118460	37.491280	0.000000	84.355379	84.355379	84.355379	0.000000	84.355379	84.355379	84.355379	18.745640	42.177690	0.000000	9.372820	0.000000	9.372820
0.393333	0.000000	0.000000	0.000000	4.721882	0.000000	0.000000	0.000000	18.887527	28.331291	37.775055	0.000000	18.887527	28.331291	37.775055	0.000000	84.993873	84.993873	84.993873	0.000000	84.993873	84.993873	84.993873	18.887527	42.496937	0.000000	9.443764	0.000000	9.443764
0.400000	0.000000	0.000000	0.000000	4.755283	0.000000	0.000000	0.000000	19.021130	28.531695	38.042261	0.000000	19.021130	28.531695	38.042261	0.000000	85.595086	85.595086	85.595086	0.000000	85.595086	85.595086	85.595086	19.021130	42.797543	0.000000	9.510565	0.000000	9.510565
0.406667	0.000000	0.000000	0.000000	4.786597	0.000000	0.000000	0.000000	19.146390	28.719585	38.292780	0.000000	19.146390	28.719585	38.292780	0.000000	86.158755	86.158755	86.158755	0.000000	86.158755	86.158755	86.158755	19.146390	43.079377	0.000000	9.573195	0.000000	9.573195
0.413333	0.000000	0.000000	0.000000	4.815813	0.000000	0.000000	0.000000	19.263251	28.894877	38.526503	0.000000	19.263251	28.894877	38.526503	0.000000	86.684631	86.684631	86.684631	0.000000	86.684631	86.684631	86.684631	19.263251	43.342316	0.000000	9.631626	0.000000	9.631626
0.420000	0.000000	0.000000	0.000000	4.842916	0.000000	0.000000	0.000000	19.371663	29.057495	38.743326	0.000000	19.371663	29.057495	38.743326	0.000000	87.172485	87.172485	87.172485	0.000000	87.172485	87.172485	87.172485	19.371663	43.586242	0.000000	9.685832	0.000000	9.685832
0.426667	0.000000	0.000000	0.000000	4.867895	0.000000	0.000000	0.000000	19.471578	29.207367	38.943156	0.000000	19.471578	29.207367	38.943156	0.000000	87.622101	87.622101	87.622101	0.000000	87.622101	87.622101	87.622101	19.471578	43.811051	0.000000	9.735789	0.000000	9.735789
0.433333	0.000000	0.000000	0.000000	4.890738	0.000000	0.000000	0.000000	19.562952	29.344428	39.125904	0.000000	19.562952	29.344428	39.125904	0.000000	88.033284	88.033284	88.033284	0.000000	88.033284	88.033284	88.033284	19.562952	44.016642	0.000000	9.781476	0.000000	9.781476
0.440000	0.000000	0.000000	0.000000	4.911436	0.000000	0.000000	0.000000	19.645745	29.468618	39.291490	0.000000	19.645745	29.468618	39.291490	0.000000	88.405853	88.405853	88.405853	0.000000	88.405853	88.405853	88.405853	19.645745	44.202926	0.000000	9.822873	0.000000	9.822873
0.446667	0.000000	0.000000	0.000000	4.929980	0.000000	0.000000	0.000000	19.719921	29.579881	39.439841	0.000000	19.719921	29.579881	39.439841	0.000000	88.739643	88.739643	88.739643	0.000000	88.739643	88.739643	88.739643	19.719921	44.369822	0.000000	9.859960	0.000000	9.859960
0.453333	0.000000	0.000000	0.000000	4.946362	0.000000	0.000000	0.000000	19.785447	29.678170	39.570893	0.000000	19.785447	29.678170	39.570893	0.000000	89.034510	89.034510	89.034510	0.000000	89.034510	89.034510	89.034510	19.785447	44.517255	0.000000	9.892723	0.000000	9.892723
0.460000	0.000000	0.000000	0.000000	4.960574	0.000000	0.000000	0.000000	19.842294	29.763441	39.684588	0.000000	19.842294	29.763441	39.684588	0.000000	89.290323	89.290323	89.290323	0.000000	89.290323	89.290323	89.290323	19.842294	44.645162	0.000000	9.921147	0.000000	9.921147
0.466667	0.000000	0.000000	0.000000	4.972609	0.000000	0.000000	0.000000	19.890438	29.835657	39.780876	0.000000	19.890438	29.835657	39.780876	0.000000	89.506971	89.506971	89.506971	0.000000	89.506971	89.506971	89.506971	19.890438	44.753485	0.000000	9.945219	0.000000	9.945219
0.473333	0.000000	0.000000	0.000000	4.982464	0.000000	0.000000	0.000000	19.929857	29.894786	39.859714	0.000000	19.929857	29.894786	39.859714	0.000000	89.684357	89.684357	89.684357	0.000000	89.684357	89.684357	89.684357	19.929857	44.842179	0.000000	9.964929	0.000000	9.964929
0.480000	0.000000	0.000000	0.000000	4.990134	0.000000	0.000000	0.000000	19.960535	29.940802	39.921069	0.000000	19.960535	29.940802	39.921069	0.000000	89.822406	89.822406	89.822406	0.000000	89.822406	89.822406	89.822406	19.960535	44.911203	0.000000	9.980267	0.000000	9.980267
0.486667	0.000000	0.000000	0.000000	4.995614	0.000000	0.000000	0.000000	19.982457	29.973685	39.964913	0.000000	19.982457	29.973685	39.964913	0.000000	89.921055	89.921055	89.921055	0.000000	89.921055	89.921055	89.921055	19.982457	44.960527	0.000000	9.991228	0.000000	9.991228
0.493333	0.000000	0.000000	0.000000	4.998903	0.000000	0.000000	0.000000	19.995614	29.993421	39.991227	0.000000	19.995614	29.993421	39.991227	0.000000	89.980262	89.980262	89.980262	0.000000	89.980262	89.980262	89.980262	19.995614	44.990131	0.000000	9.997807	0.000000	9.997807
0.500000	0.000000	0.000000	0.000000	5.000000	0.000000	0.000000	0.000000	20.000000	30.000000	40.000000	0.000000	20.000000	30.000000	40.000000	0.000000	90.000000	90.000000	90.000000	0.000000	90.000000	90.000000	90.000000	20.000000	45.000000	0.000000	10.000000	0.000000	10.000000
0.506667	0.000000	0.000000	0.000000	4.998903	0.000000	0.000000	0.000000	19.995614	29.993421	39.991227	0.000000	19.995614	29.993421	39.991227	0.000000	89.980262	89.980262	89.980262	0.000000	89.980262	89.980262	89.980262	19.995614	44.990131	0.000000	9.997807	0.000000	9.997807
0.513333	0.000000	0.000000	0.000000	4.995614	0.000000	0.000000	0.000000	19.982457	29.973685	39.964913	0.000000	19.982457	29.973685	39.964913	0.000000	89.921055	89.921055	89.921055	0.000000	89.921055	89.921055	89.921055	19.982457	44.960527	0.000000	9.991228	0.000000	9.991228
0.520000	0.000000	0.000000	0.000000	4.990134	0.000000	0.000000	0.000000	19.960535	29.940802	39.921069	0.000000	19.960535	29.940802	39.921069	0.000000	89.822406	89.822406	89.822406	0.000000	89.822406	89.822406	89.822406	19.960535	44.911203	0.000000	9.980267	0.000000	9.980267
